<svg xmlns="http://www.w3.org/2000/svg" viewBox="0 0 1200 630" width="1200" height="630">
  <defs>
    <linearGradient id="bg" x1="0" y1="0" x2="1" y2="1">
      <stop offset="0" stop-color="#0c0d12"/><stop offset="1" stop-color="#15131c"/>
    </linearGradient>
    <radialGradient id="g1" cx="22%" cy="28%" r="55%"><stop offset="0" stop-color="#4C7DF0" stop-opacity="0.55"/><stop offset="1" stop-color="#4C7DF0" stop-opacity="0"/></radialGradient>
    <radialGradient id="g2" cx="82%" cy="78%" r="55%"><stop offset="0" stop-color="#7c5af0" stop-opacity="0.45"/><stop offset="1" stop-color="#7c5af0" stop-opacity="0"/></radialGradient>
    <linearGradient id="ln" x1="0" y1="0" x2="1" y2="0"><stop offset="0" stop-color="#4C7DF0"/><stop offset="1" stop-color="#7c5af0"/></linearGradient>
    <filter id="b"><feGaussianBlur stdDeviation="40"/></filter>
  </defs>
  <rect width="1200" height="630" fill="url(#bg)"/>
  <rect width="1200" height="630" fill="url(#g1)"/>
  <rect width="1200" height="630" fill="url(#g2)"/>
  <g opacity="0.08" stroke="#fff" stroke-width="1"><line x1="0" y1="0" x2="0" y2="630"/><line x1="60" y1="0" x2="60" y2="630"/><line x1="120" y1="0" x2="120" y2="630"/><line x1="180" y1="0" x2="180" y2="630"/><line x1="240" y1="0" x2="240" y2="630"/><line x1="300" y1="0" x2="300" y2="630"/><line x1="360" y1="0" x2="360" y2="630"/><line x1="420" y1="0" x2="420" y2="630"/><line x1="480" y1="0" x2="480" y2="630"/><line x1="540" y1="0" x2="540" y2="630"/><line x1="600" y1="0" x2="600" y2="630"/><line x1="660" y1="0" x2="660" y2="630"/><line x1="720" y1="0" x2="720" y2="630"/><line x1="780" y1="0" x2="780" y2="630"/><line x1="840" y1="0" x2="840" y2="630"/><line x1="900" y1="0" x2="900" y2="630"/><line x1="960" y1="0" x2="960" y2="630"/><line x1="1020" y1="0" x2="1020" y2="630"/><line x1="1080" y1="0" x2="1080" y2="630"/><line x1="1140" y1="0" x2="1140" y2="630"/><line x1="0" y1="0" x2="1200" y2="0"/><line x1="0" y1="60" x2="1200" y2="60"/><line x1="0" y1="120" x2="1200" y2="120"/><line x1="0" y1="180" x2="1200" y2="180"/><line x1="0" y1="240" x2="1200" y2="240"/><line x1="0" y1="300" x2="1200" y2="300"/><line x1="0" y1="360" x2="1200" y2="360"/><line x1="0" y1="420" x2="1200" y2="420"/><line x1="0" y1="480" x2="1200" y2="480"/><line x1="0" y1="540" x2="1200" y2="540"/><line x1="0" y1="600" x2="1200" y2="600"/></g><g stroke="url(#ln)" stroke-width="3" fill="none" opacity="0.8"><path d="M260,300 C390.0,300 390.0,180 520,180"/><path d="M260,300 C390.0,300 390.0,420 520,420"/><path d="M520,180 C660.0,180 660.0,300 800,300"/><path d="M520,420 C660.0,420 660.0,300 800,300"/><path d="M800,300 C880.0,300 880.0,200 960,200"/><path d="M800,300 C880.0,300 880.0,400 960,400"/></g><circle cx="260" cy="300" r="26" fill="#15131c" stroke="#7c5af0" stroke-width="3"/><circle cx="260" cy="300" r="8" fill="#7c5af0"><animate attributeName="r" values="6;11;6" dur="2.0s" repeatCount="indefinite"/></circle><circle cx="520" cy="180" r="26" fill="#15131c" stroke="#4C7DF0" stroke-width="3"/><circle cx="520" cy="180" r="8" fill="#4C7DF0"><animate attributeName="r" values="6;11;6" dur="2.3s" repeatCount="indefinite"/></circle><circle cx="520" cy="420" r="26" fill="#15131c" stroke="#7c5af0" stroke-width="3"/><circle cx="520" cy="420" r="8" fill="#7c5af0"><animate attributeName="r" values="6;11;6" dur="2.6s" repeatCount="indefinite"/></circle><circle cx="800" cy="300" r="26" fill="#15131c" stroke="#4C7DF0" stroke-width="3"/><circle cx="800" cy="300" r="8" fill="#4C7DF0"><animate attributeName="r" values="6;11;6" dur="2.9s" repeatCount="indefinite"/></circle><circle cx="960" cy="200" r="26" fill="#15131c" stroke="#7c5af0" stroke-width="3"/><circle cx="960" cy="200" r="8" fill="#7c5af0"><animate attributeName="r" values="6;11;6" dur="3.2s" repeatCount="indefinite"/></circle><circle cx="960" cy="400" r="26" fill="#15131c" stroke="#4C7DF0" stroke-width="3"/><circle cx="960" cy="400" r="8" fill="#4C7DF0"><animate attributeName="r" values="6;11;6" dur="3.5s" repeatCount="indefinite"/></circle></svg>