<svg xmlns="http://www.w3.org/2000/svg" viewBox="0 0 1200 630" width="1200" height="630">
  <defs>
    <linearGradient id="bg" x1="0" y1="0" x2="1" y2="1">
      <stop offset="0" stop-color="#0c0d12"/><stop offset="1" stop-color="#15131c"/>
    </linearGradient>
    <radialGradient id="g1" cx="22%" cy="28%" r="55%"><stop offset="0" stop-color="#19b88a" stop-opacity="0.55"/><stop offset="1" stop-color="#19b88a" stop-opacity="0"/></radialGradient>
    <radialGradient id="g2" cx="82%" cy="78%" r="55%"><stop offset="0" stop-color="#4C7DF0" stop-opacity="0.45"/><stop offset="1" stop-color="#4C7DF0" stop-opacity="0"/></radialGradient>
    <linearGradient id="ln" x1="0" y1="0" x2="1" y2="0"><stop offset="0" stop-color="#19b88a"/><stop offset="1" stop-color="#4C7DF0"/></linearGradient>
    <filter id="b"><feGaussianBlur stdDeviation="40"/></filter>
  </defs>
  <rect width="1200" height="630" fill="url(#bg)"/>
  <rect width="1200" height="630" fill="url(#g1)"/>
  <rect width="1200" height="630" fill="url(#g2)"/>
  <g opacity="0.08" stroke="#fff" stroke-width="1"><line x1="0" y1="0" x2="0" y2="630"/><line x1="60" y1="0" x2="60" y2="630"/><line x1="120" y1="0" x2="120" y2="630"/><line x1="180" y1="0" x2="180" y2="630"/><line x1="240" y1="0" x2="240" y2="630"/><line x1="300" y1="0" x2="300" y2="630"/><line x1="360" y1="0" x2="360" y2="630"/><line x1="420" y1="0" x2="420" y2="630"/><line x1="480" y1="0" x2="480" y2="630"/><line x1="540" y1="0" x2="540" y2="630"/><line x1="600" y1="0" x2="600" y2="630"/><line x1="660" y1="0" x2="660" y2="630"/><line x1="720" y1="0" x2="720" y2="630"/><line x1="780" y1="0" x2="780" y2="630"/><line x1="840" y1="0" x2="840" y2="630"/><line x1="900" y1="0" x2="900" y2="630"/><line x1="960" y1="0" x2="960" y2="630"/><line x1="1020" y1="0" x2="1020" y2="630"/><line x1="1080" y1="0" x2="1080" y2="630"/><line x1="1140" y1="0" x2="1140" y2="630"/><line x1="0" y1="0" x2="1200" y2="0"/><line x1="0" y1="60" x2="1200" y2="60"/><line x1="0" y1="120" x2="1200" y2="120"/><line x1="0" y1="180" x2="1200" y2="180"/><line x1="0" y1="240" x2="1200" y2="240"/><line x1="0" y1="300" x2="1200" y2="300"/><line x1="0" y1="360" x2="1200" y2="360"/><line x1="0" y1="420" x2="1200" y2="420"/><line x1="0" y1="480" x2="1200" y2="480"/><line x1="0" y1="540" x2="1200" y2="540"/><line x1="0" y1="600" x2="1200" y2="600"/></g><g><rect x="300" y="200" width="110" height="70" rx="12" fill="#15131c" stroke="#4C7DF0" stroke-width="2" opacity="0.9"/><rect x="316" y="218" width="60" height="10" rx="5" fill="#4C7DF0" opacity="0.7"/><rect x="430" y="200" width="110" height="70" rx="12" fill="#15131c" stroke="#19b88a" stroke-width="2" opacity="0.9"/><rect x="446" y="218" width="60" height="10" rx="5" fill="#19b88a" opacity="0.7"/><rect x="560" y="200" width="110" height="70" rx="12" fill="#15131c" stroke="#4C7DF0" stroke-width="2" opacity="0.9"/><rect x="576" y="218" width="60" height="10" rx="5" fill="#4C7DF0" opacity="0.7"/><rect x="690" y="200" width="110" height="70" rx="12" fill="#15131c" stroke="#19b88a" stroke-width="2" opacity="0.9"/><rect x="706" y="218" width="60" height="10" rx="5" fill="#19b88a" opacity="0.7"/><rect x="820" y="200" width="110" height="70" rx="12" fill="#15131c" stroke="#4C7DF0" stroke-width="2" opacity="0.9"/><rect x="836" y="218" width="60" height="10" rx="5" fill="#4C7DF0" opacity="0.7"/><rect x="300" y="290" width="110" height="70" rx="12" fill="#15131c" stroke="#19b88a" stroke-width="2" opacity="0.9"/><rect x="316" y="308" width="60" height="10" rx="5" fill="#19b88a" opacity="0.7"/><rect x="430" y="290" width="110" height="70" rx="12" fill="#15131c" stroke="#4C7DF0" stroke-width="2" opacity="0.9"/><rect x="446" y="308" width="60" height="10" rx="5" fill="#4C7DF0" opacity="0.7"/><rect x="560" y="290" width="110" height="70" rx="12" fill="#15131c" stroke="#19b88a" stroke-width="2" opacity="0.9"/><rect x="576" y="308" width="60" height="10" rx="5" fill="#19b88a" opacity="0.7"/><rect x="690" y="290" width="110" height="70" rx="12" fill="#15131c" stroke="#4C7DF0" stroke-width="2" opacity="0.9"/><rect x="706" y="308" width="60" height="10" rx="5" fill="#4C7DF0" opacity="0.7"/><rect x="820" y="290" width="110" height="70" rx="12" fill="#15131c" stroke="#19b88a" stroke-width="2" opacity="0.9"/><rect x="836" y="308" width="60" height="10" rx="5" fill="#19b88a" opacity="0.7"/><rect x="300" y="380" width="110" height="70" rx="12" fill="#15131c" stroke="#4C7DF0" stroke-width="2" opacity="0.9"/><rect x="316" y="398" width="60" height="10" rx="5" fill="#4C7DF0" opacity="0.7"/><rect x="430" y="380" width="110" height="70" rx="12" fill="#15131c" stroke="#19b88a" stroke-width="2" opacity="0.9"/><rect x="446" y="398" width="60" height="10" rx="5" fill="#19b88a" opacity="0.7"/><rect x="560" y="380" width="110" height="70" rx="12" fill="#15131c" stroke="#4C7DF0" stroke-width="2" opacity="0.9"/><rect x="576" y="398" width="60" height="10" rx="5" fill="#4C7DF0" opacity="0.7"/><rect x="690" y="380" width="110" height="70" rx="12" fill="#15131c" stroke="#19b88a" stroke-width="2" opacity="0.9"/><rect x="706" y="398" width="60" height="10" rx="5" fill="#19b88a" opacity="0.7"/><rect x="820" y="380" width="110" height="70" rx="12" fill="#15131c" stroke="#4C7DF0" stroke-width="2" opacity="0.9"/><rect x="836" y="398" width="60" height="10" rx="5" fill="#4C7DF0" opacity="0.7"/></g></svg>