<svg xmlns="http://www.w3.org/2000/svg" viewBox="0 0 1200 630" width="1200" height="630">
  <defs>
    <linearGradient id="bg" x1="0" y1="0" x2="1" y2="1">
      <stop offset="0" stop-color="#0c0d12"/><stop offset="1" stop-color="#15131c"/>
    </linearGradient>
    <radialGradient id="g1" cx="22%" cy="28%" r="55%"><stop offset="0" stop-color="#e0922f" stop-opacity="0.55"/><stop offset="1" stop-color="#e0922f" stop-opacity="0"/></radialGradient>
    <radialGradient id="g2" cx="82%" cy="78%" r="55%"><stop offset="0" stop-color="#e0556f" stop-opacity="0.45"/><stop offset="1" stop-color="#e0556f" stop-opacity="0"/></radialGradient>
    <linearGradient id="ln" x1="0" y1="0" x2="1" y2="0"><stop offset="0" stop-color="#e0922f"/><stop offset="1" stop-color="#e0556f"/></linearGradient>
    <filter id="b"><feGaussianBlur stdDeviation="40"/></filter>
  </defs>
  <rect width="1200" height="630" fill="url(#bg)"/>
  <rect width="1200" height="630" fill="url(#g1)"/>
  <rect width="1200" height="630" fill="url(#g2)"/>
  <g opacity="0.08" stroke="#fff" stroke-width="1"><line x1="0" y1="0" x2="0" y2="630"/><line x1="60" y1="0" x2="60" y2="630"/><line x1="120" y1="0" x2="120" y2="630"/><line x1="180" y1="0" x2="180" y2="630"/><line x1="240" y1="0" x2="240" y2="630"/><line x1="300" y1="0" x2="300" y2="630"/><line x1="360" y1="0" x2="360" y2="630"/><line x1="420" y1="0" x2="420" y2="630"/><line x1="480" y1="0" x2="480" y2="630"/><line x1="540" y1="0" x2="540" y2="630"/><line x1="600" y1="0" x2="600" y2="630"/><line x1="660" y1="0" x2="660" y2="630"/><line x1="720" y1="0" x2="720" y2="630"/><line x1="780" y1="0" x2="780" y2="630"/><line x1="840" y1="0" x2="840" y2="630"/><line x1="900" y1="0" x2="900" y2="630"/><line x1="960" y1="0" x2="960" y2="630"/><line x1="1020" y1="0" x2="1020" y2="630"/><line x1="1080" y1="0" x2="1080" y2="630"/><line x1="1140" y1="0" x2="1140" y2="630"/><line x1="0" y1="0" x2="1200" y2="0"/><line x1="0" y1="60" x2="1200" y2="60"/><line x1="0" y1="120" x2="1200" y2="120"/><line x1="0" y1="180" x2="1200" y2="180"/><line x1="0" y1="240" x2="1200" y2="240"/><line x1="0" y1="300" x2="1200" y2="300"/><line x1="0" y1="360" x2="1200" y2="360"/><line x1="0" y1="420" x2="1200" y2="420"/><line x1="0" y1="480" x2="1200" y2="480"/><line x1="0" y1="540" x2="1200" y2="540"/><line x1="0" y1="600" x2="1200" y2="600"/></g><g fill="none" stroke-width="4" stroke-linecap="round"><rect x="360" y="400" width="60" height="40" rx="10" fill="url(#ln)" stroke="none" opacity="0.5"/><rect x="480" y="355" width="60" height="85" rx="10" fill="url(#ln)" stroke="none" opacity="0.6"/><rect x="600" y="310" width="60" height="130" rx="10" fill="url(#ln)" stroke="none" opacity="0.7"/><rect x="720" y="265" width="60" height="175" rx="10" fill="url(#ln)" stroke="none" opacity="0.8"/><rect x="840" y="220" width="60" height="220" rx="10" fill="url(#ln)" stroke="none" opacity="0.9"/><path d="M340,420 Q540,200 740,320 T1040,180" stroke="#e0556f" opacity="0.8"/></g></svg>